<svg xmlns="http://www.w3.org/2000/svg" viewBox="0 0 661.48 163.44"><defs><style>.cls-1{fill:#002d74;}.cls-2{fill:#fff;}.cls-3{fill:#0f9bd7;}.cls-4{fill:#00a0df;}.cls-5{fill:#4dbde9;}.cls-6{fill:#a6def4;}.cls-7{fill:#80d0ef;}</style></defs><g id="Layer_2" data-name="Layer 2"><g id="Layer_1-2" data-name="Layer 1"><path class="cls-1" d="M121.75,0H0V90.39c0,35.2,20.59,60.32,59.55,72.65l1.3.4,1.35-.4c39-12.32,59.55-37.44,59.55-72.65ZM61.1,159.53l-.25.06-.19-.06c-37.29-11.79-57-35.71-56.92-69.14V3.67H118.08V90.39C118.09,123.83,98.39,147.74,61.1,159.53Z"/><path class="cls-2" d="M3.74,3.67V90.39c-.06,33.43,19.63,57.35,56.92,69.14l.19.06.25-.06c37.29-11.79,57-35.7,57-69.14V3.67ZM114.4,89.33c0,32.05-18.11,54.91-52.39,66.13l-1.16.41-1.17-.41C25.41,144.24,7.3,121.37,7.3,89.33v-82H114.4Z"/><polygon class="cls-3" points="89.81 81.77 89.8 81.77 89.81 81.78 89.81 81.77"/><path class="cls-3" d="M48.1,57.55v0h0Z"/><path class="cls-3" d="M37.29,142.4h0l0,0Z"/><path class="cls-4" d="M89.8,81.77a90.41,90.41,0,0,0-41.7-24.2l5.95,44.75Z"/><path class="cls-5" d="M28.9,116.78l25.15-14.46L48.1,57.57h0L23,98.84Z"/><path class="cls-4" d="M48.09,57.57a86.75,86.75,0,0,0-10.08-2A81.14,81.14,0,0,0,9.26,56.81h0L23,98.84Z"/><polygon class="cls-5" points="58.15 133.2 75.38 125.61 89.81 81.78 89.8 81.77 54.05 102.32 58.15 133.2"/><path class="cls-4" d="M109.15,110.72h0A92.25,92.25,0,0,0,89.81,81.78L75.38,125.61Z"/><path class="cls-6" d="M37.31,142.4a94.74,94.74,0,0,0,23.34,11.08l.21.06h0L58.15,133.2Z"/><path class="cls-7" d="M58.15,133.2l2.71,20.34.19-.06c2-.66,4-1.36,5.84-2.09l8.49-25.78Z"/><path class="cls-5" d="M109.15,110.72,75.38,125.61l-8.49,25.78C88.79,142.88,103.1,129.06,109.15,110.72Z"/><path class="cls-7" d="M23,98.84l-9.23,15.21a58.67,58.67,0,0,0,4.42,8.87l10.69-6.14Z"/><path class="cls-7" d="M54.05,102.32,28.9,116.78l8.39,25.6,0,0,20.84-9.2Z"/><path class="cls-5" d="M9.26,56.82V89a67.14,67.14,0,0,0,4.53,25L23,98.84Z"/><path class="cls-6" d="M18.21,122.92a63.2,63.2,0,0,0,19.08,19.46l-8.39-25.6Z"/><path class="cls-4" d="M89.8,81.77a90.41,90.41,0,0,0-41.7-24.2l5.95,44.75Z"/><path class="cls-5" d="M28.9,116.78l25.15-14.46L48.1,57.57h0L23,98.84Z"/><path class="cls-4" d="M48.09,57.57a86.75,86.75,0,0,0-10.08-2A81.14,81.14,0,0,0,9.26,56.81h0L23,98.84Z"/><polygon class="cls-5" points="58.15 133.2 75.38 125.61 89.81 81.78 89.8 81.77 54.05 102.32 58.15 133.2"/><path class="cls-4" d="M109.15,110.72h0A92.25,92.25,0,0,0,89.81,81.78L75.38,125.61Z"/><path class="cls-6" d="M37.31,142.4a94.74,94.74,0,0,0,23.34,11.08l.21.06h0L58.15,133.2Z"/><path class="cls-7" d="M58.15,133.2l2.71,20.34.19-.06c2-.66,4-1.36,5.84-2.09l8.49-25.78Z"/><path class="cls-5" d="M109.15,110.72,75.38,125.61l-8.49,25.78C88.79,142.88,103.1,129.06,109.15,110.72Z"/><path class="cls-7" d="M23,98.84l-9.23,15.21a58.67,58.67,0,0,0,4.42,8.87l10.69-6.14Z"/><path class="cls-7" d="M54.05,102.32,28.9,116.78l8.39,25.6,0,0,20.84-9.2Z"/><path class="cls-5" d="M9.26,56.82V89a67.14,67.14,0,0,0,4.53,25L23,98.84Z"/><path class="cls-6" d="M18.21,122.92a63.2,63.2,0,0,0,19.08,19.46l-8.39-25.6Z"/><path class="cls-1" d="M7.3,7.34v82c0,32,18.11,54.91,52.38,66.13l1.17.41,1.16-.41c34.28-11.22,52.39-34.08,52.39-66.13v-82ZM61.05,153.48l-.19.06-.21-.06C27,142.49,9.26,120.2,9.26,89V56.81A81.14,81.14,0,0,1,38,55.59c32.24,4.32,59.1,26.47,71.14,55.12C102.58,130.64,86.28,145.23,61.05,153.48Z"/><path class="cls-2" d="M71.19,16.42c0,.51.37.64.94.79,2,.47,2.25,1.22,2.25,2.83V37.59c0,1.6-.21,2.36-2.25,2.83-.57.15-.93.27-.94.78v.88h10V41.2c0-.51-.38-.63-.94-.78C78.2,40,78,39.19,78,37.59V20c0-1.61.21-2.36,2.25-2.83.56-.15.93-.27.94-.79v-.87h-10Z"/><path class="cls-2" d="M20.78,21V37.57c0,1.61.18,2.36,2.08,2.83.53.14.86.27.87.8v.86H15.51V41.2c0-.53.35-.66.88-.8,1.89-.47,2.08-1.22,2.08-2.83V20c0-1.61-.19-2.36-2.08-2.84-.53-.14-.87-.27-.88-.78v-.87h5a1.73,1.73,0,0,1,1.66.93l14.69,18.2c0-.1,0-14.64,0-14.64,0-1.61-.18-2.36-2.07-2.84-.54-.14-.88-.27-.88-.78v-.87h8.26v.87c0,.51-.35.64-.88.78-1.89.48-2.08,1.23-2.08,2.84v22h-.45c-.69,0-1.08-.52-1.6-1.2Z"/><path class="cls-2" d="M68.17,40.42c-1.26-.27-1.91-1.24-2.63-2.78,0,0-9-22.56-9-22.6l-1,.07c-.42.06-.85.09-1.44,1.26,0,0-8.42,21.28-8.42,21.28a5,5,0,0,1-3.35,2.77c-.58.1-.95.26-.95.78v.86h9.71V41.2c0-.52-.65-.59-1.2-.78-2-.72-1.79-1.77-1.45-2.84l1.86-4.5h9.42c.06.15,1.94,4.52,1.94,4.52.34,1.06,1.06,2.1-1,2.82-.55.19-1.2.26-1.2.78v.86h9.67V41.2C69.12,40.68,68.75,40.52,68.17,40.42ZM51.05,31c.19-.48,4.1-9.66,4.11-9.66S58.7,30.5,58.91,31Z"/><path class="cls-2" d="M83.37,15.55v6.32h.72c.48,0,.64-.35.82-.94.6-2.11,1.5-2.71,3-2.68h4.86V37.57c0,1.61-.58,2.36-2.61,2.83-.57.14-.93.27-.94.8v.86h10.91V41.2c0-.53-.38-.66-.94-.8-2-.47-2.61-1.22-2.61-2.83V18.25h4.85c1.51,0,2.4.57,3,2.68.18.59.33.93.83.94h.77V15.55Z"/><path class="cls-2" d="M179.66,66.57l-2.28-6.28h-9l-2.17,6h-4.52l8.94-23.91h4.86l8.73,23.33Zm-6.8-19.18-3.24,9.18h6.48Z"/><path class="cls-2" d="M195.25,66.33V42.53h4.59V62.3h7.94l.62,4Z"/><path class="cls-2" d="M211.92,66.33V42.53h13.83v3.86h-9.31V52h7.17l.62,3.93h-7.79v6.56h9.66v3.86Z"/><path class="cls-2" d="M246.18,66.57l-2.28-6.28h-9l-2.17,6H228.2l8.94-23.91H242l8.73,23.33Zm-6.8-19.18-3.24,9.18h6.48Z"/><path class="cls-2" d="M261.74,66.33h-7.56V42.53h7.56c8.28,0,12.56,4.86,12.56,11.87S269.85,66.33,261.74,66.33Zm0-20h-3V62.57h2.89c5,0,8-2.55,8-8.14S266.46,46.29,261.7,46.29Z"/><path class="cls-2" d="M278.85,66.33V42.53h4.59v23.8Z"/><path class="cls-2" d="M304.28,66.33,293.07,49.94V66.33h-4.25V42.53h4.32l10.69,15.59V42.53h4.24v23.8Z"/><path class="cls-2" d="M324.08,66.78c-7.55,0-11.69-5-11.69-12.32S316.77,42.08,324,42.08a13.62,13.62,0,0,1,7.24,1.9l-.66,4.24A11.06,11.06,0,0,0,324.05,46c-4.66,0-7,3.38-7,8.45s2.41,8.49,7.21,8.49a8,8,0,0,0,4-1V56.67h-4.83L322.88,53h9.55V64.37A15.59,15.59,0,0,1,324.08,66.78Z"/><path class="cls-2" d="M351.48,57.57h-2v8.76h-4.55V42.53h7c5.45,0,8.73,2.52,8.73,7.31C360.59,55,356.93,57.57,351.48,57.57Zm.14-11.39h-2.18v7.7h2c2.93,0,4.65-1.21,4.65-3.94C356.1,47.46,354.55,46.18,351.62,46.18Z"/><path class="cls-2" d="M374.46,66.78c-6.76,0-11.15-5-11.15-12.32s4.42-12.38,11.22-12.38,11.14,5,11.14,12.32S381.29,66.78,374.46,66.78Zm0-20.91c-4.07,0-6.52,3.35-6.52,8.56S370.42,63,374.49,63s6.56-3.35,6.56-8.56S378.56,45.87,374.49,45.87Z"/><path class="cls-2" d="M390,66.33V42.53h4.58V62.3h7.94l.62,4Z"/><path class="cls-2" d="M414.1,57.22v9.11h-4.59V57.26L401.2,43l4.76-.75,6,10.76,5.84-10.52h4.89Z"/><path class="cls-2" d="M436.08,46.5V66.33h-4.59V46.5h-7.07v-4h18.49l.65,4Z"/><path class="cls-2" d="M447,66.33V42.53h13.83v3.86h-9.31V52h7.17l.62,3.93h-7.79v6.56h9.66v3.86Z"/><path class="cls-2" d="M475,66.75c-6.93,0-11.28-4.9-11.28-12.29S468.27,42.11,475,42.11a12.44,12.44,0,0,1,6.66,1.73L481,48.15a9.55,9.55,0,0,0-5.8-2.1c-4.21,0-6.79,3.2-6.79,8.38s2.76,8.35,7,8.35a10.85,10.85,0,0,0,6-2l.63,3.93A13.09,13.09,0,0,1,475,66.75Z"/><path class="cls-2" d="M501.15,66.33V56H491V66.33h-4.59V42.53H491v9.38h10.11V42.53h4.59v23.8Z"/><path class="cls-2" d="M526.44,66.33,515.23,49.94V66.33H511V42.53h4.32L526,58.12V42.53h4.25v23.8Z"/><path class="cls-2" d="M535.65,66.33V42.53h4.59v23.8Z"/><path class="cls-2" d="M556,66.75c-6.93,0-11.28-4.9-11.28-12.29s4.52-12.35,11.25-12.35a12.44,12.44,0,0,1,6.66,1.73l-.66,4.31a9.55,9.55,0,0,0-5.79-2.1c-4.21,0-6.8,3.2-6.8,8.38s2.76,8.35,7,8.35a10.88,10.88,0,0,0,6-2l.62,3.93A13.06,13.06,0,0,1,556,66.75Z"/><path class="cls-2" d="M172.82,108.86c-6.93,0-11.28-4.9-11.28-12.28s4.52-12.35,11.25-12.35A12.44,12.44,0,0,1,179.45,86l-.66,4.32a9.5,9.5,0,0,0-5.8-2.11c-4.2,0-6.79,3.21-6.79,8.39s2.76,8.34,7,8.34a10.85,10.85,0,0,0,6-2l.63,3.94A13.17,13.17,0,0,1,172.82,108.86Z"/><path class="cls-2" d="M193.35,108.9c-6.76,0-11.14-5-11.14-12.32s4.41-12.39,11.21-12.39,11.14,5,11.14,12.32S200.18,108.9,193.35,108.9Zm0-20.91c-4.08,0-6.52,3.35-6.52,8.56s2.44,8.55,6.52,8.55,6.55-3.35,6.55-8.55S197.46,88,193.39,88Z"/><path class="cls-2" d="M230.86,108.45l-1.28-17.39-6,17.46h-4l-6-17.46-1.21,17.39h-4.11l1.83-23.81h5.8l6,18,6-18h5.69l1.83,23.81Z"/><path class="cls-2" d="M261.94,108.45l-1.27-17.39-6,17.46h-4l-6-17.46-1.2,17.39h-4.11l1.83-23.81h5.79l6,18,6-18h5.69l1.83,23.81Z"/><path class="cls-2" d="M271.22,108.45V84.64h4.59v23.81Z"/><path class="cls-2" d="M291.34,88.61v19.84h-4.59V88.61h-7.07v-4h18.49l.66,4Z"/><path class="cls-2" d="M312.42,88.61v19.84h-4.59V88.61h-7.07v-4h18.49l.66,4Z"/><path class="cls-2" d="M323.36,108.45V84.64h13.83v3.87h-9.31V94.1h7.17l.63,3.93h-7.8v6.55h9.66v3.87Z"/><path class="cls-2" d="M349,108.45h-7.55V84.64H349c8.28,0,12.56,4.87,12.56,11.87S357.1,108.45,349,108.45Zm0-20h-3v16.29h2.9c5,0,8-2.56,8-8.14S353.72,88.4,349,88.4Z"/><path class="cls-2" d="M383.67,88.61v19.84h-4.59V88.61H372v-4H390.5l.66,4Z"/><path class="cls-2" d="M403.5,108.9c-6.76,0-11.14-5-11.14-12.32s4.42-12.39,11.21-12.39,11.15,5,11.15,12.32S410.34,108.9,403.5,108.9Zm0-20.91c-4.07,0-6.52,3.35-6.52,8.56s2.45,8.55,6.52,8.55,6.55-3.35,6.55-8.55S407.61,88,403.54,88Z"/><path class="cls-2" d="M437.56,99.34v9.11H433V99.37l-8.31-14.21,4.76-.76,6,10.77,5.83-10.53h4.9Z"/><path class="cls-2" d="M457.91,108.9c-6.76,0-11.14-5-11.14-12.32S451.19,84.19,458,84.19s11.15,5,11.15,12.32S464.74,108.9,457.91,108.9ZM458,88c-4.07,0-6.52,3.35-6.52,8.56s2.45,8.55,6.52,8.55,6.55-3.35,6.55-8.55S462,88,458,88Z"/><path class="cls-2" d="M482.72,108.86c-5.76,0-9.52-3.41-9.52-9.62V84.64h4.55V99c0,3.63,1.66,5.9,5,5.9s5.07-2.13,5.07-5.79V84.64h4.58V99.13C492.41,105.45,488.48,108.86,482.72,108.86Z"/><path class="cls-2" d="M514.88,107.83l-4.66.86L504,99.34h-2.07v9.11h-4.56V84.64h7.39c5.31,0,8.52,2.52,8.52,7.14a6.68,6.68,0,0,1-4.76,6.7ZM504.42,88.3H501.9v7.55h2.32c2.82,0,4.58-1.34,4.58-3.82S507.29,88.3,504.42,88.3Z"/><path class="cls-2" d="M532.13,108.72a17.27,17.27,0,0,1-7.49-1.65l.69-4.18A14.12,14.12,0,0,0,532.2,105c2.1,0,3.55-1,3.55-2.9s-.83-2.48-4.28-4C526.85,96.23,525,94.72,525,91c0-4.2,3.24-6.65,7.69-6.65A12.79,12.79,0,0,1,539,85.82L538.27,90a10.62,10.62,0,0,0-5.62-1.87c-2.28,0-3.28,1.11-3.28,2.56s.76,2.24,4.07,3.62c4.9,2,6.69,3.69,6.69,7.38C540.13,106.31,536.72,108.72,532.13,108.72Z"/><path class="cls-2" d="M553.52,108.86c-5.76,0-9.52-3.41-9.52-9.62V84.64h4.55V99c0,3.63,1.66,5.9,5,5.9s5.08-2.13,5.08-5.79V84.64h4.58V99.13C563.21,105.45,559.28,108.86,553.52,108.86Z"/><path class="cls-2" d="M578.53,108.86c-6.93,0-11.28-4.9-11.28-12.28s4.52-12.35,11.25-12.35A12.44,12.44,0,0,1,585.16,86l-.66,4.32a9.49,9.49,0,0,0-5.79-2.11c-4.21,0-6.8,3.21-6.8,8.39s2.76,8.34,7,8.34a10.88,10.88,0,0,0,6-2l.62,3.94A13.17,13.17,0,0,1,578.53,108.86Z"/><path class="cls-2" d="M599.2,108.86c-6.93,0-11.28-4.9-11.28-12.28s4.52-12.35,11.25-12.35A12.44,12.44,0,0,1,605.83,86l-.66,4.32a9.5,9.5,0,0,0-5.8-2.11c-4.21,0-6.79,3.21-6.79,8.39s2.76,8.34,7,8.34a10.85,10.85,0,0,0,6-2l.62,3.94A13.11,13.11,0,0,1,599.2,108.86Z"/><path class="cls-2" d="M610.62,108.45V84.64h13.84v3.87h-9.32V94.1h7.18l.62,3.93h-7.8v6.55h9.66v3.87Z"/><path class="cls-2" d="M635.19,108.72a17.27,17.27,0,0,1-7.49-1.65l.69-4.18a14.12,14.12,0,0,0,6.87,2.11c2.1,0,3.55-1,3.55-2.9s-.83-2.48-4.28-4c-4.62-1.9-6.48-3.41-6.48-7.11,0-4.2,3.24-6.65,7.69-6.65A12.79,12.79,0,0,1,642,85.82L641.33,90a10.62,10.62,0,0,0-5.62-1.87c-2.28,0-3.28,1.11-3.28,2.56s.76,2.24,4.07,3.62c4.9,2,6.69,3.69,6.69,7.38C643.19,106.31,639.78,108.72,635.19,108.72Z"/><path class="cls-2" d="M653.47,108.72a17.22,17.22,0,0,1-7.48-1.65l.69-4.18a14.08,14.08,0,0,0,6.86,2.11c2.11,0,3.56-1,3.56-2.9s-.83-2.48-4.28-4c-4.63-1.9-6.49-3.41-6.49-7.11,0-4.2,3.25-6.65,7.7-6.65a12.72,12.72,0,0,1,6.27,1.45L659.61,90A10.59,10.59,0,0,0,654,88.09c-2.28,0-3.28,1.11-3.28,2.56s.76,2.24,4.07,3.62c4.9,2,6.7,3.69,6.7,7.38C661.48,106.31,658.06,108.72,653.47,108.72Z"/></g></g></svg>