<?xml version="1.0" encoding="utf-8"?>
<!-- Generator: Adobe Illustrator 15.1.0, SVG Export Plug-In . SVG Version: 6.00 Build 0)  -->
<!DOCTYPE svg PUBLIC "-//W3C//DTD SVG 1.1//EN" "http://www.w3.org/Graphics/SVG/1.1/DTD/svg11.dtd">
<svg version="1.1" id="Layer_1" xmlns="http://www.w3.org/2000/svg" xmlns:xlink="http://www.w3.org/1999/xlink" x="0px" y="0px"
	 width="636px" height="144px" viewBox="0 0 636 144" enable-background="new 0 0 636 144" xml:space="preserve">
<g>
	<path fill="#6D6E71" d="M35.436,83.355c0,2.55-0.462,4.781-1.386,6.693c-0.925,1.912-2.256,3.516-3.994,4.807
		c-1.738,1.292-3.833,2.26-6.288,2.897c-2.456,0.638-5.213,0.957-8.274,0.957c-3.474,0-6.456-0.283-8.942-0.842
		c-2.487-0.557-4.67-1.38-6.551-2.464v-7.937c0.988,0.509,2.087,1.013,3.299,1.507c1.211,0.494,2.487,0.935,3.826,1.316
		c1.339,0.383,2.718,0.691,4.137,0.932c1.418,0.238,2.828,0.356,4.231,0.356c2.073,0,3.833-0.172,5.284-0.522
		c1.451-0.351,2.631-0.854,3.539-1.509c0.909-0.653,1.57-1.45,1.985-2.391c0.414-0.94,0.622-1.985,0.622-3.132
		c0-0.988-0.159-1.881-0.478-2.678c-0.319-0.797-0.901-1.586-1.746-2.367s-2.001-1.57-3.467-2.367
		c-1.466-0.798-3.347-1.69-5.643-2.678c-2.295-0.989-4.36-1.961-6.193-2.918c-1.833-0.957-3.388-2.024-4.663-3.204
		c-1.275-1.18-2.256-2.542-2.941-4.089c-0.686-1.546-1.028-3.388-1.028-5.524c0-2.231,0.438-4.216,1.315-5.953
		c0.877-1.738,2.111-3.196,3.706-4.376c1.594-1.179,3.507-2.072,5.739-2.678c2.231-0.605,4.718-0.909,7.46-0.909
		c3.092,0,5.922,0.335,8.488,1.005c2.566,0.669,4.997,1.545,7.292,2.629l-3.012,7.03c-2.073-0.924-4.201-1.729-6.384-2.415
		c-2.184-0.685-4.408-1.028-6.671-1.028c-3.252,0-5.659,0.534-7.221,1.602c-1.562,1.068-2.343,2.59-2.343,4.567
		c0,1.116,0.183,2.088,0.55,2.917c0.366,0.829,0.997,1.61,1.89,2.343c0.892,0.733,2.087,1.474,3.586,2.224
		c1.498,0.749,3.363,1.586,5.595,2.511c2.295,0.956,4.344,1.913,6.146,2.869c1.8,0.957,3.339,2.033,4.614,3.228
		c1.275,1.195,2.248,2.559,2.917,4.088C35.101,79.387,35.436,81.221,35.436,83.355z"/>
	<path fill="#6D6E71" d="M62.486,98.71c-2.964,0-5.675-0.574-8.13-1.722c-2.455-1.148-4.559-2.865-6.313-5.145
		c-1.753-2.279-3.108-5.109-4.064-8.488s-1.435-7.301-1.435-11.764c0-4.495,0.478-8.44,1.435-11.835s2.311-6.24,4.064-8.536
		c1.754-2.295,3.858-4.025,6.313-5.188c2.455-1.164,5.166-1.746,8.13-1.746c1.881,0,3.587,0.216,5.117,0.646
		s2.901,1.004,4.112,1.721c1.212,0.718,2.296,1.563,3.252,2.535c0.957,0.973,1.801,2.017,2.534,3.132h0.382l1.292-7.078h7.029
		v76.042h-8.704V98.848c0-0.606,0.032-1.372,0.095-2.296c0.064-0.925,0.127-1.817,0.191-2.678c0.096-1.021,0.191-2.072,0.287-3.155
		h-0.574c-0.702,1.083-1.522,2.113-2.463,3.085c-0.94,0.973-2.024,1.823-3.251,2.557c-1.227,0.732-2.606,1.307-4.136,1.723
		C66.121,98.496,64.399,98.71,62.486,98.71z M64.16,91.484c2.423,0,4.472-0.363,6.145-1.098c1.674-0.732,3.029-1.849,4.065-3.35
		c1.036-1.498,1.801-3.371,2.295-5.618s0.773-4.87,0.837-7.866v-1.961c0-3.22-0.215-6.081-0.646-8.583
		c-0.43-2.503-1.164-4.607-2.2-6.313c-1.036-1.706-2.415-2.997-4.137-3.874s-3.873-1.315-6.456-1.315
		c-4.304,0-7.468,1.737-9.493,5.212c-2.024,3.476-3.036,8.465-3.036,14.969c0,6.663,1.012,11.628,3.036,14.896
		C56.596,89.852,59.792,91.484,64.16,91.484z"/>
	<path fill="#6D6E71" d="M134.107,97.753l-1.292-7.034h-0.478c-0.797,1.369-1.746,2.56-2.846,3.563
		c-1.1,1.004-2.303,1.832-3.61,2.486s-2.694,1.144-4.161,1.463c-1.466,0.318-2.964,0.479-4.495,0.479
		c-2.901,0-5.452-0.372-7.652-1.106c-2.2-0.733-4.033-1.881-5.499-3.443c-1.467-1.561-2.575-3.55-3.324-5.973
		c-0.75-2.425-1.125-5.311-1.125-8.657V45.242h8.704v33.811c0,4.144,0.845,7.252,2.534,9.326c1.69,2.072,4.304,3.105,7.843,3.105
		c2.583,0,4.75-0.415,6.504-1.244s3.164-2.047,4.232-3.656c1.068-1.61,1.833-3.596,2.296-5.954c0.462-2.359,0.693-5.069,0.693-8.13
		V45.242h8.704v52.511H134.107z"/>
	<path fill="#6D6E71" d="M184.638,97.753l-1.77-7.271h-0.383c-1.052,1.436-2.104,2.668-3.156,3.704
		c-1.052,1.035-2.2,1.887-3.443,2.557c-1.244,0.669-2.63,1.169-4.161,1.488c-1.53,0.318-3.3,0.479-5.308,0.479
		c-2.2,0-4.225-0.315-6.073-0.938c-1.849-0.621-3.452-1.577-4.807-2.869c-1.355-1.29-2.415-2.917-3.18-4.877
		c-0.765-1.961-1.148-4.28-1.148-6.958c0-5.228,1.842-9.244,5.524-12.051c3.682-2.806,9.285-4.336,16.809-4.591l8.799-0.334v-3.3
		c0-2.136-0.232-3.921-0.693-5.356c-0.462-1.434-1.132-2.59-2.008-3.467c-0.877-0.876-1.961-1.506-3.252-1.889
		c-1.292-0.383-2.766-0.574-4.423-0.574c-2.647,0-5.11,0.382-7.389,1.147c-2.28,0.765-4.471,1.69-6.576,2.774l-3.061-6.552
		c2.359-1.275,4.99-2.359,7.891-3.252s5.946-1.339,9.134-1.339c3.252,0,6.065,0.327,8.44,0.981c2.375,0.653,4.335,1.689,5.882,3.108
		c1.546,1.419,2.702,3.229,3.467,5.428s1.148,4.862,1.148,7.986v35.965H184.638z M168.666,91.676c1.944,0,3.746-0.301,5.404-0.906
		c1.657-0.605,3.092-1.523,4.304-2.752c1.211-1.227,2.16-2.773,2.845-4.639c0.686-1.864,1.028-4.057,1.028-6.574V72.07l-6.838,0.334
		c-2.869,0.128-5.277,0.447-7.221,0.957c-1.945,0.51-3.499,1.219-4.663,2.128c-1.165,0.908-2,2.009-2.51,3.3
		s-0.765,2.75-0.765,4.375c0,2.933,0.772,5.087,2.319,6.458C164.115,90.993,166.147,91.676,168.666,91.676z"/>
	<path fill="#6D6E71" d="M226.992,44.285c0.924,0,1.96,0.04,3.108,0.12c1.147,0.08,2.135,0.199,2.965,0.359l-1.148,8.034
		c-0.893-0.16-1.811-0.295-2.75-0.407c-0.94-0.112-1.825-0.167-2.654-0.167c-2.008,0-3.843,0.407-5.5,1.22
		c-1.658,0.813-3.084,1.977-4.28,3.491c-1.196,1.515-2.121,3.332-2.774,5.452c-0.654,2.12-0.98,4.471-0.98,7.054v28.313h-8.704
		V45.242h7.078l1.052,9.613h0.382c0.797-1.371,1.65-2.694,2.558-3.97c0.909-1.275,1.929-2.399,3.061-3.371
		c1.132-0.972,2.398-1.754,3.803-2.344C223.613,44.581,225.206,44.285,226.992,44.285z"/>
	<path fill="#6D6E71" d="M261.359,98.71c-3.507,0-6.711-0.597-9.612-1.775c-2.901-1.18-5.396-2.902-7.484-5.164
		c-2.088-2.263-3.706-5.067-4.854-8.415c-1.147-3.347-1.722-7.173-1.722-11.477c0-4.335,0.526-8.209,1.579-11.621
		c1.052-3.412,2.535-6.304,4.447-8.68c1.913-2.375,4.2-4.184,6.861-5.428c2.662-1.243,5.604-1.865,8.824-1.865
		c3.156,0,5.994,0.566,8.512,1.698c2.518,1.132,4.654,2.726,6.407,4.782c1.753,2.056,3.099,4.527,4.04,7.412
		c0.941,2.885,1.412,6.081,1.412,9.588v5.404h-33.091c0.159,6.152,1.459,10.68,3.896,13.58c2.438,2.904,6.066,4.352,10.88,4.352
		c1.626,0,3.131-0.076,4.519-0.236c1.387-0.159,2.726-0.393,4.015-0.695c1.292-0.303,2.544-0.686,3.755-1.148
		c1.211-0.461,2.439-0.98,3.683-1.554v7.745c-1.275,0.604-2.528,1.138-3.755,1.584c-1.228,0.446-2.487,0.807-3.778,1.094
		c-1.29,0.287-2.629,0.5-4.016,0.628C264.49,98.646,262.985,98.71,261.359,98.71z M259.207,51.507c-3.635,0-6.513,1.244-8.633,3.73
		c-2.119,2.486-3.354,6.105-3.705,10.855h23.527c0-2.168-0.217-4.152-0.647-5.954c-0.429-1.802-1.099-3.34-2.007-4.615
		c-0.909-1.275-2.063-2.264-3.466-2.965C262.874,51.857,261.184,51.507,259.207,51.507z"/>
</g>
<g>
	<path fill="#F47B20" d="M353.65,71.927c0,4.463-0.57,8.416-1.702,11.859c-1.132,3.442-2.758,6.343-4.879,8.702
		c-2.118,2.357-4.703,4.152-7.747,5.38s-6.466,1.846-10.261,1.846c-3.537,0-6.79-0.618-9.755-1.846
		c-2.964-1.228-5.521-3.022-7.673-5.38c-2.152-2.359-3.836-5.26-5.047-8.702c-1.211-3.443-1.817-7.396-1.817-11.859
		c0-4.433,0.568-8.369,1.7-11.813s2.757-6.336,4.877-8.68c2.12-2.343,4.693-4.12,7.721-5.332c3.028-1.211,6.457-1.817,10.281-1.817
		c3.538,0,6.791,0.606,9.756,1.817c2.964,1.212,5.526,2.989,7.68,5.332c2.151,2.344,3.837,5.236,5.049,8.68
		S353.65,67.494,353.65,71.927z M319.689,71.927c0,5.324,0.749,9.333,2.247,12.026c1.499,2.693,3.938,4.04,7.316,4.04
		c3.349,0,5.771-1.354,7.269-4.064c1.499-2.709,2.248-6.71,2.248-12.002c0-5.325-0.749-9.302-2.248-11.932
		c-1.497-2.631-3.953-3.945-7.364-3.945c-3.347,0-5.761,1.314-7.242,3.945C320.433,62.625,319.689,66.602,319.689,71.927z"/>
	<path fill="#F47B20" d="M409.863,98.757h-14.585v-31.23c0-3.857-0.578-6.75-1.742-8.679c-1.164-1.93-3.025-2.894-5.575-2.894
		c-1.913,0-3.508,0.383-4.782,1.147c-1.275,0.766-2.284,1.897-3.033,3.396c-0.749,1.499-1.287,3.348-1.605,5.547
		c-0.319,2.2-0.478,4.719-0.478,7.556v25.157h-14.586V45.289h11.143l1.96,6.839h0.813c0.765-1.37,1.701-2.55,2.801-3.538
		c1.101-0.989,2.3-1.802,3.607-2.439c1.307-0.638,2.693-1.108,4.16-1.41c1.467-0.304,2.965-0.455,4.495-0.455
		c2.614,0,4.99,0.375,7.126,1.124c2.135,0.749,3.969,1.921,5.499,3.515c1.531,1.594,2.71,3.627,3.539,6.098s1.243,5.428,1.243,8.871
		V98.757z"/>
	<path fill="#F47B20" d="M445.617,99.714c-3.825,0-7.348-0.564-10.568-1.681c-3.22-1.114-5.993-2.795-8.32-5.042
		c-2.327-2.248-4.132-5.085-5.424-8.513c-1.291-3.427-1.941-7.451-1.941-12.074c0-4.687,0.59-8.783,1.771-12.29
		c1.179-3.507,2.833-6.432,4.953-8.775c2.12-2.343,4.67-4.104,7.651-5.284c2.98-1.18,6.284-1.77,9.919-1.77
		c3.538,0,6.739,0.534,9.592,1.603c2.854,1.067,5.276,2.638,7.27,4.71c1.992,2.073,3.522,4.615,4.591,7.628
		c1.067,3.013,1.598,6.464,1.598,10.353v7.078h-32.614c0.063,2.041,0.396,3.882,0.984,5.523s1.419,3.028,2.486,4.16
		c1.068,1.132,2.36,2,3.874,2.606c1.514,0.607,3.24,0.907,5.185,0.907c1.626,0,3.169-0.087,4.618-0.262
		c1.451-0.176,2.858-0.438,4.229-0.79c1.371-0.35,2.727-0.788,4.065-1.314s2.709-1.14,4.112-1.841v11.282
		c-1.275,0.671-2.555,1.238-3.847,1.7c-1.29,0.463-2.657,0.851-4.092,1.17c-1.435,0.318-2.979,0.552-4.638,0.695
		S447.595,99.714,445.617,99.714z M443.752,54.662c-2.582,0-4.721,0.909-6.428,2.727c-1.705,1.816-2.689,4.671-2.944,8.561h18.603
		c-0.032-1.627-0.239-3.125-0.621-4.496c-0.383-1.37-0.957-2.559-1.723-3.563c-0.765-1.004-1.721-1.793-2.869-2.367
		C446.622,54.949,445.283,54.662,443.752,54.662z"/>
</g>
<g>
	<path fill="#F47B20" d="M580.702,95.65c-3.876,0-7.032-3.156-7.032-7.031V26.366C573.67,11.804,561.86,0,547.298,0h-9.629v19.335
		h9.629c3.876,0,7.031,3.151,7.031,7.031v62.253c0,3.875-3.155,7.031-7.031,7.031h-9.629v19.334h52.662V95.65H580.702z"/>
	<path fill="#6D6E71" d="M620.002,15.993L636,0h-45.669v45.67l15.998-15.999l8.263,8.257c0.002,0.008,0.002,0.011,0.004,0.016
		c1.279,1.274,2.064,3.032,2.064,4.971v74.715c0,3.875-3.156,7.031-7.031,7.031h-91.257c-3.887,0-7.031-3.156-7.031-7.031V26.366
		c0-3.88,3.145-7.031,7.031-7.031h9.627V0h-9.627C503.803,0,492,11.804,492,26.366v91.263C492,132.191,503.803,144,518.372,144
		h91.257C624.2,144,636,132.191,636,117.629V42.914c0-7.273-2.95-13.865-7.717-18.634L620.002,15.993z"/>
</g>
</svg>
